<svg width="42" height="42" viewBox="0 0 42 42" fill="none" xmlns="http://www.w3.org/2000/svg">
<path d="M21.0764 0C32.6836 0 42 9.46909 42 21.0764C42 32.6836 32.6836 42 21.0764 42C9.46909 42 0 32.6836 0 21.0764C0 9.46909 9.46909 0 21.0764 0ZM21.0764 2.13818C10.6909 2.13818 2.13818 10.6909 2.13818 21.0764C2.13818 31.4618 10.6909 39.8618 21.0764 39.8618C31.4618 39.8618 39.8618 31.4618 39.8618 21.0764C39.8618 10.5382 31.4618 2.13818 21.0764 2.13818Z" fill="#DC3545"/>
<path d="M28.1018 12.9818V29.0182H23.0618V12.9818H28.1018Z" fill="#DC3545"/>
<path d="M18.9382 12.9818V29.0182H13.8982V12.9818H18.9382Z" fill="#DC3545"/>
</svg>
